#Comment line ignore any data following # character 
#Hierarchical Translation and Rotation (.htr) file 
[Header]	
#Header keywords are followed by a single value 
FileType HTR		#Single word string
DataType HTRS		#Translation followed by rotation and scale data
FileVersion 1		#integer
NumSegments 84		#integer
NumFrames 2		#integer
DataFrameRate 30		#integer, data frame rate in this file
EulerRotationOrder ZYX
CalibrationUnits mm
RotationUnits Degrees
GlobalAxisofGravity Y
BoneLengthAxis Y
ScaleFactor 1.00
[SegmentNames&Hierarchy]
#CHILD	PARENT
MASTER GLOBAL
root MASTER
chest root
L_mid_tent01 root
R_mid_tent01 root
spine01 root
Bip01_Neck chest
L_humerus chest
R_humerus chest
weapon_bone chest
Bip01_Head Bip01_Neck
eye_left_bone Bip01_Head
eye_right_bone Bip01_Head
L_forearm L_humerus
L_front_hand L_forearm
L_weapon_bone L_forearm
L_front_hand01_01 L_front_hand
L_front_hand02_01 L_front_hand
L_front_hand03_01 L_front_hand
L_front_hand01_02 L_front_hand01_01
L_front_hand02_02 L_front_hand02_01
L_front_hand03_02 L_front_hand03_01
R_forearm R_humerus
R_front_hand R_forearm
R_weapon_bone R_forearm
R_front_hand01_01 R_front_hand
R_front_hand02_01 R_front_hand
R_front_hand03_01 R_front_hand
R_front_hand01_02 R_front_hand01_01
R_front_hand02_02 R_front_hand02_01
R_front_hand03_02 R_front_hand03_01
null_rope01_connect L_mid_tent01
Rope1_Seg01 null_rope01_connect
Rope1_Seg02 Rope1_Seg01
Rope1_Seg03 Rope1_Seg02
Rope1_Seg04 Rope1_Seg03
Rope1_Seg05 Rope1_Seg04
Rope1_Seg06 Rope1_Seg05
Rope1_Seg07 Rope1_Seg06
Rope1_Seg09 Rope1_Seg07
L_mid_hand01 Rope1_Seg09
L_mid_hand02 Rope1_Seg09
L_mid_hand03 Rope1_Seg09
null_rope02_connect R_mid_tent01
Rope2_Seg01 null_rope02_connect
Rope2_Seg02 Rope2_Seg01
Rope2_Seg03 Rope2_Seg02
Rope2_Seg04 Rope2_Seg03
Rope2_Seg05 Rope2_Seg04
Rope2_Seg06 Rope2_Seg05
Rope2_Seg07 Rope2_Seg06
Rope2_Seg09 Rope2_Seg07
R_mid_hand01 Rope2_Seg09
R_mid_hand02 Rope2_Seg09
R_mid_hand03 Rope2_Seg09
spine02 spine01
spine03 spine02
pelvis spine03
null_rope03_connect pelvis
null_rope04_connect pelvis
Rope3_Seg01 null_rope03_connect
Rope3_Seg02 Rope3_Seg01
Rope3_Seg03 Rope3_Seg02
Rope3_Seg04 Rope3_Seg03
Rope3_Seg05 Rope3_Seg04
Rope3_Seg06 Rope3_Seg05
Rope3_Seg07 Rope3_Seg06
Rope3_Seg08 Rope3_Seg07
Rope3_Seg09 Rope3_Seg08
R_rear_hand01 Rope3_Seg09
R_rear_hand02 Rope3_Seg09
R_rear_hand03 Rope3_Seg09
Rope4_Seg01 null_rope04_connect
Rope4_Seg02 Rope4_Seg01
Rope4_Seg03 Rope4_Seg02
Rope4_Seg04 Rope4_Seg03
Rope4_Seg05 Rope4_Seg04
Rope4_Seg06 Rope4_Seg05
Rope4_Seg07 Rope4_Seg06
Rope4_Seg08 Rope4_Seg07
Rope4_Seg09 Rope4_Seg08
L_rear_hand01 Rope4_Seg09
L_rear_hand02 Rope4_Seg09
L_rear_hand03 Rope4_Seg09
[BasePosition]
#SegmentName Tx, Ty, Tz, Rx, Ry, Rz, BoneLength
MASTER 0.000000 0.000000 0.000000 -90.000000 0.000000 0.000000 10.000000 
root 0.000000 0.000000 0.000000 0.000000 0.000000 0.000000 10.000000 
chest 0.000000 0.000000 0.000000 0.000000 0.000000 0.000000 10.000000 
L_mid_tent01 0.000000 0.000000 0.000000 0.000000 0.000000 0.000000 10.000000 
R_mid_tent01 0.000000 0.000000 0.000000 0.000000 0.000000 0.000000 10.000000 
spine01 0.000000 0.000000 0.000000 0.000000 0.000000 0.000000 10.000000 
Bip01_Neck 0.000000 0.000000 0.000000 0.000000 0.000000 0.000000 10.000000 
L_humerus 0.000000 0.000000 0.000000 0.000000 0.000000 0.000000 10.000000 
R_humerus 0.000000 0.000000 0.000000 0.000000 0.000000 0.000000 10.000000 
weapon_bone 0.000000 0.000000 0.000000 0.000000 0.000000 0.000000 10.000000 
Bip01_Head 0.000000 0.000000 0.000000 0.000000 0.000000 0.000000 10.000000 
eye_left_bone 0.000000 0.000000 0.000000 0.000000 0.000000 0.000000 10.000000 
eye_right_bone 0.000000 0.000000 0.000000 0.000000 0.000000 0.000000 10.000000 
L_forearm 0.000000 0.000000 0.000000 0.000000 0.000000 0.000000 10.000000 
L_front_hand 0.000000 0.000000 0.000000 0.000000 0.000000 0.000000 10.000000 
L_weapon_bone 0.000000 0.000000 0.000000 0.000000 0.000000 0.000000 10.000000 
L_front_hand01_01 0.000000 0.000000 0.000000 0.000000 0.000000 0.000000 10.000000 
L_front_hand02_01 0.000000 0.000000 0.000000 0.000000 0.000000 0.000000 10.000000 
L_front_hand03_01 0.000000 0.000000 0.000000 0.000000 0.000000 0.000000 10.000000 
L_front_hand01_02 0.000000 0.000000 0.000000 0.000000 0.000000 0.000000 10.000000 
L_front_hand02_02 0.000000 0.000000 0.000000 0.000000 0.000000 0.000000 10.000000 
L_front_hand03_02 0.000000 0.000000 0.000000 0.000000 0.000000 0.000000 10.000000 
R_forearm 0.000000 0.000000 0.000000 0.000000 0.000000 0.000000 10.000000 
R_front_hand 0.000000 0.000000 0.000000 0.000000 0.000000 0.000000 10.000000 
R_weapon_bone 0.000000 0.000000 0.000000 0.000000 0.000000 0.000000 10.000000 
R_front_hand01_01 0.000000 0.000000 0.000000 0.000000 0.000000 0.000000 10.000000 
R_front_hand02_01 0.000000 0.000000 0.000000 0.000000 0.000000 0.000000 10.000000 
R_front_hand03_01 0.000000 0.000000 0.000000 0.000000 0.000000 0.000000 10.000000 
R_front_hand01_02 0.000000 0.000000 0.000000 0.000000 0.000000 0.000000 10.000000 
R_front_hand02_02 0.000000 0.000000 0.000000 0.000000 0.000000 0.000000 10.000000 
R_front_hand03_02 0.000000 0.000000 0.000000 0.000000 0.000000 0.000000 10.000000 
null_rope01_connect 0.000000 0.000000 0.000000 0.000000 0.000000 0.000000 10.000000 
Rope1_Seg01 0.000000 0.000000 0.000000 0.000000 0.000000 0.000000 10.000000 
Rope1_Seg02 0.000000 0.000000 0.000000 0.000000 0.000000 0.000000 10.000000 
Rope1_Seg03 0.000000 0.000000 0.000000 0.000000 0.000000 0.000000 10.000000 
Rope1_Seg04 0.000000 0.000000 0.000000 0.000000 0.000000 0.000000 10.000000 
Rope1_Seg05 0.000000 0.000000 0.000000 0.000000 0.000000 0.000000 10.000000 
Rope1_Seg06 0.000000 0.000000 0.000000 0.000000 0.000000 0.000000 10.000000 
Rope1_Seg07 0.000000 0.000000 0.000000 0.000000 0.000000 0.000000 10.000000 
Rope1_Seg09 0.000000 0.000000 0.000000 0.000000 0.000000 0.000000 10.000000 
L_mid_hand01 0.000000 0.000000 0.000000 0.000000 0.000000 0.000000 10.000000 
L_mid_hand02 0.000000 0.000000 0.000000 0.000000 0.000000 0.000000 10.000000 
L_mid_hand03 0.000000 0.000000 0.000000 0.000000 0.000000 0.000000 10.000000 
null_rope02_connect 0.000000 0.000000 0.000000 0.000000 0.000000 0.000000 10.000000 
Rope2_Seg01 0.000000 0.000000 0.000000 0.000000 0.000000 0.000000 10.000000 
Rope2_Seg02 0.000000 0.000000 0.000000 0.000000 0.000000 0.000000 10.000000 
Rope2_Seg03 0.000000 0.000000 0.000000 0.000000 0.000000 0.000000 10.000000 
Rope2_Seg04 0.000000 0.000000 0.000000 0.000000 0.000000 0.000000 10.000000 
Rope2_Seg05 0.000000 0.000000 0.000000 0.000000 0.000000 0.000000 10.000000 
Rope2_Seg06 0.000000 0.000000 0.000000 0.000000 0.000000 0.000000 10.000000 
Rope2_Seg07 0.000000 0.000000 0.000000 0.000000 0.000000 0.000000 10.000000 
Rope2_Seg09 0.000000 0.000000 0.000000 0.000000 0.000000 0.000000 10.000000 
R_mid_hand01 0.000000 0.000000 0.000000 0.000000 0.000000 0.000000 10.000000 
R_mid_hand02 0.000000 0.000000 0.000000 0.000000 0.000000 0.000000 10.000000 
R_mid_hand03 0.000000 0.000000 0.000000 0.000000 0.000000 0.000000 10.000000 
spine02 0.000000 0.000000 0.000000 0.000000 0.000000 0.000000 10.000000 
spine03 0.000000 0.000000 0.000000 0.000000 0.000000 0.000000 10.000000 
pelvis 0.000000 0.000000 0.000000 0.000000 0.000000 0.000000 10.000000 
null_rope03_connect 0.000000 0.000000 0.000000 0.000000 0.000000 0.000000 10.000000 
null_rope04_connect 0.000000 0.000000 0.000000 0.000000 0.000000 0.000000 10.000000 
Rope3_Seg01 0.000000 0.000000 0.000000 0.000000 0.000000 0.000000 10.000000 
Rope3_Seg02 0.000000 0.000000 0.000000 0.000000 0.000000 0.000000 10.000000 
Rope3_Seg03 0.000000 0.000000 0.000000 0.000000 0.000000 0.000000 10.000000 
Rope3_Seg04 0.000000 0.000000 0.000000 0.000000 0.000000 0.000000 10.000000 
Rope3_Seg05 0.000000 0.000000 0.000000 0.000000 0.000000 0.000000 10.000000 
Rope3_Seg06 0.000000 0.000000 0.000000 0.000000 0.000000 0.000000 10.000000 
Rope3_Seg07 0.000000 0.000000 0.000000 0.000000 0.000000 0.000000 10.000000 
Rope3_Seg08 0.000000 0.000000 0.000000 0.000000 0.000000 0.000000 10.000000 
Rope3_Seg09 0.000000 0.000000 0.000000 0.000000 0.000000 0.000000 10.000000 
R_rear_hand01 0.000000 0.000000 0.000000 0.000000 0.000000 0.000000 10.000000 
R_rear_hand02 0.000000 0.000000 0.000000 0.000000 0.000000 0.000000 10.000000 
R_rear_hand03 0.000000 0.000000 0.000000 0.000000 0.000000 0.000000 10.000000 
Rope4_Seg01 0.000000 0.000000 0.000000 0.000000 0.000000 0.000000 10.000000 
Rope4_Seg02 0.000000 0.000000 0.000000 0.000000 0.000000 0.000000 10.000000 
Rope4_Seg03 0.000000 0.000000 0.000000 0.000000 0.000000 0.000000 10.000000 
Rope4_Seg04 0.000000 0.000000 0.000000 0.000000 0.000000 0.000000 10.000000 
Rope4_Seg05 0.000000 0.000000 0.000000 0.000000 0.000000 0.000000 10.000000 
Rope4_Seg06 0.000000 0.000000 0.000000 0.000000 0.000000 0.000000 10.000000 
Rope4_Seg07 0.000000 0.000000 0.000000 0.000000 0.000000 0.000000 10.000000 
Rope4_Seg08 0.000000 0.000000 0.000000 0.000000 0.000000 0.000000 10.000000 
Rope4_Seg09 0.000000 0.000000 0.000000 0.000000 0.000000 0.000000 10.000000 
L_rear_hand01 0.000000 0.000000 0.000000 0.000000 0.000000 0.000000 10.000000 
L_rear_hand02 0.000000 0.000000 0.000000 0.000000 0.000000 0.000000 10.000000 
L_rear_hand03 0.000000 0.000000 0.000000 0.000000 0.000000 0.000000 10.000000 
#Beginning of Data. Separated by tabs
#Fr	Tx	Ty	Tz	Rx	Ry	Rz	SF
[MASTER]
22 -0.000726 4827.780762 1503.331055 0.001660 0.001660 0.001660 5056.428711
23 -0.000744 4945.330566 1538.812012 0.001660 0.001660 0.001660 5179.211914
[root]
22 20.013220 -118.897400 462.015198 -102.902573 -18.670656 -90.692650 477.488403
23 -3.255711 -123.399040 500.908783 -100.274834 -16.462831 -90.682098 515.894897
[chest]
22 -84.512650 -34.090519 0.000000 1.135438 0.283126 176.231659 91.129311
23 -84.512650 -34.090519 0.000000 -4.220150 0.243826 161.237930 91.129311
[L_mid_tent01]
22 27.299126 22.179335 -249.918701 -0.889886 31.169466 67.773033 252.381699
23 27.299129 22.179346 -249.918701 -0.753466 32.261730 67.842537 252.381714
[R_mid_tent01]
22 23.228794 24.509907 226.238495 168.202713 -24.826731 68.321327 228.744751
23 23.228794 24.509907 226.238495 165.969803 -25.203861 73.226051 228.744751
[spine01]
22 -0.361383 -0.195265 0.000000 0.001955 0.001298 22.828329 0.410763
23 -0.361383 -0.195265 0.000000 0.001955 0.001299 22.782932 0.410763
[Bip01_Neck]
22 165.484543 71.581718 0.000119 176.643677 -1.657967 43.431911 180.302734
23 165.484543 71.581718 0.000119 176.643677 -1.657967 43.431911 180.302734
[L_humerus]
22 -13.983130 -135.272980 -120.471481 153.508057 72.246048 -114.977509 181.680161
23 -13.983130 -135.272980 -120.471481 164.538010 59.337910 -102.965263 181.680161
[R_humerus]
22 -13.983309 -135.273102 125.287651 -175.353531 -50.095585 -89.109932 184.909012
23 -13.983309 -135.273102 125.287651 -175.782806 -44.984917 -88.525597 184.909012
[weapon_bone]
22 235.964890 -300.705902 0.000000 0.000000 -89.951546 -128.212341 382.234833
23 235.964890 -300.705902 0.000000 0.000000 -89.951546 -128.212341 382.234833
[Bip01_Head]
22 213.363037 185.941772 8.855896 4.439387 -0.225299 -43.899635 283.154633
23 213.336777 186.015152 7.908287 4.443141 0.096322 -43.897816 283.155029
[eye_left_bone]
22 -24.626970 125.451866 -64.772606 0.000000 -90.000000 -99.840431 143.318359
23 -24.626970 125.451866 -64.772606 0.000000 -90.000000 -99.840431 143.318359
[eye_right_bone]
22 -24.626970 125.451866 64.327362 0.000000 -89.965736 80.156380 143.117676
23 -24.626970 125.451866 64.327362 0.000000 -89.965736 80.156380 143.117676
[L_forearm]
22 322.776093 0.000000 -0.000119 0.000200 -0.002339 -99.797928 322.776093
23 322.776093 0.000000 -0.000119 0.000210 -0.002338 -100.246185 322.776093
[L_front_hand]
22 241.149185 -0.042021 -3.300071 -175.724197 -1.836556 -27.420916 241.171753
23 241.149185 -0.042021 -3.300071 -176.009857 -1.834663 -27.423937 241.171753
[L_weapon_bone]
22 156.183838 0.000000 0.000000 0.000014 0.000007 0.000001 156.183838
23 156.183838 0.000000 0.000000 0.000014 0.000007 0.000001 156.183838
[L_front_hand01_01]
22 86.095154 20.947098 -0.655860 -0.320916 -0.506937 70.186226 88.609184
23 86.095154 20.947098 -0.655860 -0.334039 -0.500941 71.473785 88.609184
[L_front_hand02_01]
22 86.935165 -11.437475 24.513514 146.956512 -57.330299 -52.653660 91.046425
23 86.935165 -11.437475 24.513514 148.678970 -58.017021 -54.691475 91.046425
[L_front_hand03_01]
22 86.637497 -14.123976 -20.424902 -146.987762 55.547066 -54.435081 90.126129
23 86.637497 -14.123976 -20.424902 -148.599625 56.232182 -56.378220 90.126129
[L_front_hand01_02]
22 71.020905 -0.000179 0.000030 0.000326 -0.002324 -105.969223 71.020905
23 71.020905 -0.000179 0.000030 0.000329 -0.002324 -106.126221 71.020905
[L_front_hand02_02]
22 71.020927 -0.000119 0.000060 0.000326 -0.002324 -105.969223 71.020927
23 71.020927 -0.000119 0.000060 0.000329 -0.002324 -106.126221 71.020927
[L_front_hand03_02]
22 71.020905 -0.000060 0.000060 0.000326 -0.002324 -105.969223 71.020905
23 71.020905 -0.000060 0.000060 0.000329 -0.002324 -106.126221 71.020905
[R_forearm]
22 322.776428 -0.000060 0.000030 0.208423 0.026905 -98.361168 322.776428
23 322.776428 -0.000060 0.000030 0.209391 0.028981 -98.814140 322.776428
[R_front_hand]
22 238.847015 -0.006795 2.210259 14.221102 -10.644415 -26.313377 238.857239
23 238.847015 -0.006795 2.210259 12.587010 -10.643561 -26.316448 238.857239
[R_weapon_bone]
22 155.664093 0.002503 -0.000030 0.003487 0.001180 -90.988930 155.664078
23 155.664093 0.002503 -0.000030 0.003487 0.001180 -90.988930 155.664078
[R_front_hand01_01]
22 87.624611 14.231146 22.918642 -150.820541 -58.784569 57.311836 91.683487
23 87.624611 14.231146 22.918642 -153.536880 -59.633747 60.470901 91.683487
[R_front_hand02_01]
22 89.356956 14.367283 -19.491137 151.027069 57.144753 59.518578 92.579636
23 89.356956 14.367283 -19.491137 153.567596 57.992992 62.531010 92.579636
[R_front_hand03_01]
22 87.286232 -22.307278 -0.143439 0.144811 -0.432555 -73.232849 90.091743
23 87.286232 -22.307278 -0.143439 0.155617 -0.427176 -75.061508 90.091743
[R_front_hand01_02]
22 71.020905 0.000060 0.000119 0.002323 -0.000334 106.381714 71.020905
23 71.020905 0.000060 0.000119 0.002323 -0.000334 106.381714 71.020905
[R_front_hand02_02]
22 71.020844 -0.000030 -0.000119 0.002323 -0.000334 106.381714 71.020836
23 71.020844 -0.000030 -0.000119 0.002323 -0.000334 106.381714 71.020836
[R_front_hand03_02]
22 71.020905 0.000000 0.000030 0.002323 -0.000334 106.381714 71.020905
23 71.020905 0.000000 0.000030 0.002323 -0.000334 106.381714 71.020905
[null_rope01_connect]
22 328.732483 0.000000 -0.000238 -145.447998 -46.140377 -172.825470 328.732483
23 328.732483 0.000000 -0.000238 -146.502625 -47.610088 -174.233612 328.732483
[Rope1_Seg01]
22 0.000038 -0.000324 0.000076 107.904099 -14.778511 172.851440 0.000335
23 0.000038 -0.000338 0.000073 110.658173 -12.484030 165.714645 0.000348
[Rope1_Seg02]
22 139.999863 -0.000179 0.000000 4.319642 -13.319124 -8.441836 139.999863
23 139.999863 -0.000179 0.000000 2.891158 -12.009765 -8.537481 139.999863
[Rope1_Seg03]
22 139.999924 0.000060 -0.000060 4.409257 -17.014843 -10.338061 139.999924
23 139.999924 0.000060 -0.000060 3.138570 -15.067049 -10.582679 139.999924
[Rope1_Seg04]
22 139.999924 -0.000060 -0.000119 2.322704 -16.768423 -8.387498 139.999924
23 139.999924 -0.000060 -0.000119 1.984573 -15.162069 -9.423947 139.999924
[Rope1_Seg05]
22 139.999832 0.000119 -0.000060 -0.332886 -20.418566 -5.568928 139.999832
23 139.999832 0.000119 -0.000060 0.501127 -18.790956 -8.349800 139.999832
[Rope1_Seg06]
22 139.999954 0.000119 -0.000060 -2.473480 -15.077184 -4.422731 139.999954
23 139.999954 0.000119 -0.000060 -1.333497 -14.572933 -6.738003 139.999954
[Rope1_Seg07]
22 139.999985 0.000060 0.000000 -2.321091 -8.462244 -3.140481 139.999985
23 139.999985 0.000060 0.000000 -1.578053 -8.611321 -4.463917 139.999985
[Rope1_Seg09]
22 121.602913 0.000119 -0.000089 -89.793175 -1.359789 0.847147 121.602913
23 121.602913 0.000119 -0.000089 -89.793175 -1.359789 0.847147 121.602913
[L_mid_hand01]
22 103.859421 1.038730 8.195221 114.394852 -53.111439 -20.468830 104.187431
23 103.859421 1.038730 8.195221 116.522400 -56.273491 -23.071604 104.187431
[L_mid_hand02]
22 105.572853 -4.139662 -10.864139 -154.909470 38.072205 -52.197872 106.211075
23 105.572853 -4.139662 -10.864139 -157.484573 39.487514 -56.304852 106.211075
[L_mid_hand03]
22 104.641464 17.579376 -3.913581 -11.031654 15.280054 57.403896 106.179977
23 104.641464 17.579376 -3.913581 -10.068325 15.918203 60.978344 106.179977
[null_rope02_connect]
22 328.732849 0.000179 -0.000119 -87.609085 69.822968 51.745586 328.732849
23 328.732849 0.000179 -0.000119 -98.780350 67.864334 46.707748 328.732849
[Rope2_Seg01]
22 0.000057 0.000076 0.000000 -27.077602 -32.844406 8.771553 0.000095
23 0.000058 0.000073 0.000000 -26.001719 -34.737400 7.965755 0.000093
[Rope2_Seg02]
22 139.999741 -0.000060 -0.000119 -2.789026 -4.906513 12.434959 139.999756
23 139.999741 -0.000060 -0.000119 -2.556947 -4.926431 11.882260 139.999756
[Rope2_Seg03]
22 140.000107 0.000030 0.000000 -2.704689 -17.204664 34.839092 140.000107
23 140.000107 0.000030 0.000000 -2.637742 -17.724363 34.221264 140.000107
[Rope2_Seg04]
22 139.999802 0.000000 -0.000060 18.971437 -19.950089 40.069550 139.999802
23 139.999802 0.000000 -0.000060 18.867437 -19.439964 39.129505 139.999802
[Rope2_Seg05]
22 139.999985 -0.000060 0.000119 7.762934 24.900337 0.418669 139.999985
23 139.999985 -0.000060 0.000119 9.504213 38.697666 0.774739 139.999985
[Rope2_Seg06]
22 139.999893 -0.000030 -0.000119 -7.496251 45.048065 -18.826893 139.999893
23 139.999893 -0.000030 -0.000119 -11.998406 54.210899 -16.983150 139.999893
[Rope2_Seg07]
22 139.999893 0.000060 -0.000060 -3.368602 18.443159 -3.312565 139.999893
23 139.999893 0.000060 -0.000060 -6.604146 14.435639 -0.526031 139.999893
[Rope2_Seg09]
22 121.338966 0.000089 -0.000060 33.793236 -1.359788 -0.847141 121.338966
23 121.338966 0.000089 -0.000060 33.793236 -1.359788 -0.847141 121.338966
[R_mid_hand01]
22 104.680779 11.144459 -10.335981 -36.871494 32.306065 38.202835 105.778534
23 104.680779 11.144459 -10.335981 -35.915806 33.394672 39.963581 105.778534
[R_mid_hand02]
22 104.070427 2.443552 8.231699 70.157997 -43.050724 14.375076 104.424065
23 104.070427 2.443552 8.231699 69.545181 -44.771027 15.251744 104.424065
[R_mid_hand03]
22 106.028137 -11.221827 -5.996406 -170.040359 12.343988 -47.884888 106.788818
23 106.028137 -11.221827 -5.996406 -170.436981 12.655030 -49.730145 106.788818
[spine02]
22 129.756927 0.001550 0.000119 -0.624461 -4.012403 0.991050 129.756927
23 129.756927 0.001550 0.000119 -0.580376 -4.018214 0.368433 129.756927
[spine03]
22 78.613983 0.081635 -4.899006 1.296678 4.073421 7.808994 78.766518
23 78.613976 0.081627 -4.899007 1.325643 4.064526 8.213528 78.766510
[pelvis]
22 169.435242 0.051022 0.000000 -0.002477 -0.191386 -3.446002 169.435257
23 169.435242 0.051022 0.000000 -0.003807 -0.191364 -2.649459 169.435257
[null_rope03_connect]
22 -1.257226 -2.466202 137.391083 -158.239502 -76.963417 -121.281509 137.418976
23 -1.257226 -2.466202 137.391083 -159.573288 -79.658546 -122.656509 137.418976
[null_rope04_connect]
22 -1.259640 -2.480268 -137.844437 -158.239502 -76.963417 -121.281509 137.872513
23 -1.259640 -2.480268 -137.844437 -159.573288 -79.658546 -122.656509 137.872513
[Rope3_Seg01]
22 0.000038 -0.000324 0.000000 -158.359116 -27.575338 -23.346064 0.000326
23 0.000036 -0.000338 0.000000 -157.322510 -30.005547 -29.250961 0.000340
[Rope3_Seg02]
22 139.999924 -0.000119 0.000060 11.324457 -6.735815 4.756624 139.999924
23 139.999924 -0.000119 0.000060 10.941396 -8.534252 3.927042 139.999924
[Rope3_Seg03]
22 139.999924 -0.000119 0.000119 20.572701 -13.949314 15.643486 139.999924
23 139.999924 -0.000119 0.000119 21.844372 -18.032747 13.629514 139.999924
[Rope3_Seg04]
22 139.999924 0.000119 0.000000 9.067817 -11.059111 59.074219 139.999924
23 139.999924 0.000119 0.000000 10.442953 -21.932344 53.084724 139.999924
[Rope3_Seg05]
22 139.999924 -0.000238 0.000060 -1.462720 -16.709009 6.758921 139.999924
23 139.999924 -0.000238 0.000060 0.007902 -5.412302 11.094465 139.999924
[Rope3_Seg06]
22 139.999893 -0.000119 -0.000060 5.457536 -21.880442 -13.600167 139.999893
23 139.999893 -0.000119 -0.000060 1.476840 -9.165301 -19.838449 139.999893
[Rope3_Seg07]
22 139.999771 0.000060 -0.000119 4.467767 -10.175861 -1.737982 139.999771
23 139.999771 0.000060 -0.000119 1.756930 -7.501446 -9.010140 139.999771
[Rope3_Seg08]
22 139.999985 -0.000060 0.000000 3.210706 -5.522516 -0.514830 139.999985
23 139.999985 -0.000060 0.000000 1.719367 -5.221292 -5.490612 139.999985
[Rope3_Seg09]
22 90.185997 -0.000179 -0.000060 89.793228 -1.359877 -0.847183 90.185997
23 90.185997 -0.000179 -0.000060 89.793228 -1.359877 -0.847183 90.185997
[R_rear_hand01]
22 103.366196 -6.073594 -10.757982 -165.575058 20.224255 -42.745789 104.101845
23 103.366196 -6.073594 -10.757982 -166.511459 20.844780 -45.419292 104.101845
[R_rear_hand02]
22 100.509819 12.039542 -7.992327 -29.842968 25.960022 40.362484 101.543350
23 100.509819 12.039542 -7.992327 -28.715416 27.221781 42.882874 101.543350
[R_rear_hand03]
22 101.539970 5.215704 5.435467 82.169113 -43.351929 9.256878 101.819031
23 101.539970 5.215704 5.435467 81.812386 -45.906315 9.761456 101.819031
[Rope4_Seg01]
22 -0.000010 -0.000286 -0.000076 90.212288 -51.305931 -144.694000 0.000296
23 -0.000010 -0.000302 -0.000073 90.533928 -45.805843 -149.371155 0.000310
[Rope4_Seg02]
22 139.999985 0.000060 0.000119 -7.224947 -1.065532 -9.556522 139.999985
23 139.999985 0.000060 0.000119 -11.770167 2.118138 -11.673032 139.999985
[Rope4_Seg03]
22 139.999924 0.000000 -0.000238 -29.660831 3.002486 -28.894281 139.999924
23 139.999924 0.000000 -0.000238 -32.854660 12.923903 -30.860527 139.999924
[Rope4_Seg04]
22 139.999985 0.000000 0.000119 -42.879642 28.903210 -45.360962 139.999985
23 139.999985 0.000000 0.000119 -23.806479 38.096577 -27.867769 139.999985
[Rope4_Seg05]
22 139.999802 -0.000060 -0.000119 -17.883656 12.996095 -39.146770 139.999802
23 139.999802 -0.000060 -0.000119 -3.161076 16.193451 -18.412100 139.999802
[Rope4_Seg06]
22 139.999924 0.000000 0.000060 -6.499713 9.022861 -16.910656 139.999924
23 139.999924 0.000000 0.000060 -0.669772 9.373888 -20.880608 139.999924
[Rope4_Seg07]
22 139.999802 0.000000 0.000000 -1.623526 4.692500 -5.195116 139.999802
23 139.999802 0.000000 0.000000 0.263669 5.827940 -8.788503 139.999802
[Rope4_Seg08]
22 139.999924 0.000000 0.000119 -2.158140 2.379185 -2.497372 139.999924
23 139.999924 0.000000 0.000119 -1.160762 2.947115 -4.383113 139.999924
[Rope4_Seg09]
22 90.185791 0.000060 0.000060 -135.617828 2.228885 0.850567 90.185791
23 90.185791 0.000060 0.000060 -135.617828 2.228885 0.850567 90.185791
[L_rear_hand01]
22 101.696655 -8.392275 -7.654577 -22.991795 -32.088032 125.593971 102.329041
23 101.696655 -8.392275 -7.654577 -21.250181 -33.196430 122.367828 102.329041
[L_rear_hand02]
22 102.726799 -1.568258 5.773216 79.542931 56.888847 167.348526 102.900848
23 102.726799 -1.568258 5.773216 78.649612 59.766773 166.297348 102.900848
[L_rear_hand03]
22 104.552910 9.721220 -10.420293 -170.919907 -23.031248 -122.815849 105.519653
23 104.552910 9.721220 -10.420293 -172.167084 -23.462944 -119.660843 105.519653
